HIERARCHY
ROOT Hips
{
	OFFSET 0.000000 0.000000 0.000000
	CHANNELS 6 Xposition Yposition Zposition Zrotation Yrotation Xrotation 
	JOINT LowerBack
	{
		OFFSET 0.000000 0.000000 0.000000
		CHANNELS 3 Zrotation Yrotation Xrotation
		JOINT Spine
		{
			OFFSET 0.028270 2.035590 -0.193380
			CHANNELS 3 Zrotation Yrotation Xrotation
			JOINT Spine1
			{
				OFFSET 0.056720 2.048850 -0.042750
				CHANNELS 3 Zrotation Yrotation Xrotation
				JOINT Neck
				{
					OFFSET 0.000000 0.000000 0.000000
					CHANNELS 3 Zrotation Yrotation Xrotation
					JOINT Neck1
					{
						OFFSET -0.054170 1.746240 0.172020
						CHANNELS 3 Zrotation Yrotation Xrotation
						JOINT Head
						{
							OFFSET 0.104070 1.761360 -0.123970
							CHANNELS 3 Zrotation Yrotation Xrotation
							End Site
							{
								OFFSET 0.000000 0.000000 0.000000
							}
						}
					}
				}
				JOINT LeftShoulder
				{
					OFFSET 0.000000 0.000000 0.000000
					CHANNELS 3 Zrotation Yrotation Xrotation
					JOINT LeftArm
					{
						OFFSET 3.362410 1.200890 -0.311210
						CHANNELS 3 Zrotation Yrotation Xrotation
						JOINT LeftForeArm
						{
							OFFSET 4.983000 -0.000000 -0.000000
							CHANNELS 3 Zrotation Yrotation Xrotation
							JOINT LeftHand
							{
								OFFSET 3.483560 -0.000000 -0.000000
								CHANNELS 3 Zrotation Yrotation Xrotation
								JOINT LeftFingerBase
								{
									OFFSET 0.000000 0.000000 0.000000
									CHANNELS 3 Zrotation Yrotation Xrotation
									JOINT LeftHandIndex1
									{
										OFFSET 0.715260 -0.000000 -0.000000
										CHANNELS 3 Zrotation Yrotation Xrotation
										End Site
										{
											OFFSET 0.000000 0.000000 0.000000
										}
									}
								}
								JOINT LThumb
								{
									OFFSET 0.000000 0.000000 0.000000
									CHANNELS 3 Zrotation Yrotation Xrotation
									End Site
									{
										OFFSET 0.000000 0.000000 0.000000
									}
								}
							}
						}
					}
				}
				JOINT RightShoulder
				{
					OFFSET 0.000000 0.000000 0.000000
					CHANNELS 3 Zrotation Yrotation Xrotation
					JOINT RightArm
					{
						OFFSET -3.136600 1.374050 -0.404650
						CHANNELS 3 Zrotation Yrotation Xrotation
						JOINT RightForeArm
						{
							OFFSET -5.241900 -0.000000 -0.000000
							CHANNELS 3 Zrotation Yrotation Xrotation
							JOINT RightHand
							{
								OFFSET -3.444170 -0.000000 -0.000000
								CHANNELS 3 Zrotation Yrotation Xrotation
								JOINT RightFingerBase
								{
									OFFSET 0.000000 0.000000 0.000000
									CHANNELS 3 Zrotation Yrotation Xrotation
									JOINT RightHandIndex1
									{
										OFFSET -0.622530 -0.000000 -0.000000
										CHANNELS 3 Zrotation Yrotation Xrotation
										End Site
										{
											OFFSET 0.000000 0.000000 0.000000
										}
									}
								}
								JOINT RThumb
								{
									OFFSET 0.000000 0.000000 0.000000
									CHANNELS 3 Zrotation Yrotation Xrotation
									End Site
									{
										OFFSET 0.000000 0.000000 0.000000
									}
								}
							}
						}
					}
				}
			}
		}
	}
}
}
MOTION
Frames: 7
Frame Time: 0.008333
6.307008 17.059702 1.601411 -174.520533 -85.090118 -177.732033 -0.143403 -1.361644 -2.680870 -0.806564 -1.475785 -3.949078 -6.117259 -1.609582 -1.871960 10.428496 -0.414420 -4.912381 -3.990462 -0.335042 0.728743 0.000000 0.000000 0.000000 -3.456785 0.524093 4.300915 -68.053603 14.934684 -0.740672 -3.754712 -5.245013 -0.044028 14.085712 18.524810 2.302522 -0.058199 0.108459 0.000000 0.000000 0.000000 0.000000 0.000000 0.000000 0.000000 17.396618 5.391671 1.220098 64.853416 33.887225 38.082293 1.141483 49.705807 -0.011993 -5.621700 9.974447 -0.515442 0.101979 -0.333188 -0.000000 0.000000 0.000000 0.000000 0.000000 0.000000 0.000000 
6.079710 17.099594 1.558486 173.928934 -85.088079 -166.199106 -1.495725 -1.140138 -2.766661 -1.013718 -1.145791 -3.949986 -5.878763 -1.282806 -1.816095 9.931912 -0.485297 -4.997459 -3.763097 -0.318544 0.706023 0.000000 0.000000 0.000000 -3.773516 1.309334 4.259866 -67.485649 15.742047 1.573004 -4.059152 -3.610893 -0.042630 11.384388 18.041523 1.815493 -0.082078 0.088667 -0.000000 0.000000 0.000000 0.000000 0.000000 0.000000 0.000000 15.950265 5.572772 1.164939 64.148877 35.987339 39.072716 1.053044 51.956022 -0.014718 -6.029262 10.145165 -0.563218 0.108941 -0.352527 -0.000000 0.000000 0.000000 0.000000 0.000000 0.000000 0.000000 
5.850675 17.134830 1.520495 167.517490 -84.874819 -159.819846 -2.437696 -0.845961 -2.828267 -1.152846 -0.775330 -3.946433 -5.643719 -0.910502 -1.746206 9.395129 -0.566170 -5.098651 -3.538543 -0.301790 0.678890 0.000000 0.000000 0.000000 -4.202940 2.194496 4.178651 -66.818897 16.141421 4.609080 -4.350125 -1.485229 -0.038683 8.220700 16.554249 1.206963 -0.102991 0.063493 -0.000000 0.000000 0.000000 0.000000 0.000000 0.000000 0.000000 14.465240 5.715366 1.122178 63.124691 38.069350 39.703169 0.963381 54.252079 -0.017839 -6.427470 10.165434 -0.602709 0.115534 -0.370205 -0.000000 0.000000 0.000000 0.000000 0.000000 0.000000 0.000000 
5.619641 17.165240 1.488266 164.493596 -84.420331 -156.835843 -3.123671 -0.484984 -2.868980 -1.253162 -0.358924 -3.948894 -5.422352 -0.490396 -1.697926 8.827667 -0.636829 -5.221166 -3.316090 -0.284787 0.647406 0.000000 0.000000 0.000000 -4.820395 3.162084 4.063382 -65.950870 17.332034 8.661088 -4.588407 -1.482954 -0.034340 4.899284 15.102839 0.663143 -0.118711 0.033067 -0.000000 0.000000 0.000000 0.000000 0.000000 0.000000 0.000000 12.965970 5.890781 1.112484 61.794847 40.118822 39.984064 0.882854 56.565171 -0.020996 -6.779330 10.087738 -0.632202 0.122083 -0.386836 -0.000000 0.000000 0.000000 0.000000 0.000000 0.000000 0.000000 
5.386300 17.190832 1.462291 163.636073 -83.785796 -156.009090 -3.603377 -0.089985 -2.892554 -1.325451 0.073560 -3.965880 -5.241480 -0.054613 -1.705844 8.245314 -0.677278 -5.359622 -3.093248 -0.267510 0.614043 0.000000 0.000000 0.000000 -5.697625 4.189559 3.903791 -64.468323 20.182334 13.687985 -4.710135 -5.504182 -0.032477 1.824319 14.506836 0.247638 -0.127351 -0.004016 -0.000000 0.000000 0.000000 0.000000 0.000000 0.000000 0.000000 11.479071 6.131831 1.146193 60.183283 42.106163 39.922108 0.814576 58.870156 -0.023941 -7.058163 9.970281 -0.651992 0.128293 -0.402910 -0.000000 0.000000 0.000000 0.000000 0.000000 0.000000 0.000000 
5.150536 17.211701 1.442548 164.084747 -83.053336 -156.484765 -3.918466 0.342415 -2.921830 -1.371247 0.529399 -3.987517 -5.072483 0.404442 -1.718952 7.644090 -0.675141 -5.502733 -2.876213 -0.250395 0.580359 0.000000 0.000000 0.000000 -6.712006 5.380411 3.675899 -62.537432 22.864116 18.853776 -4.704037 -9.570893 -0.030452 -0.650047 13.203407 -0.061374 -0.128009 -0.043758 -0.000000 0.000000 0.000000 0.000000 0.000000 0.000000 0.000000 9.995407 6.376395 1.181864 58.259331 44.003778 39.492654 0.738837 61.133370 -0.026982 -7.254662 9.866656 -0.664492 0.131530 -0.419002 -0.000000 0.000000 0.000000 0.000000 0.000000 0.000000 0.000000 
4.911963 17.228125 1.428989 165.433468 -82.263539 -157.840120 -4.073449 0.798629 -2.971933 -1.388758 0.995531 -4.014116 -4.909046 0.873282 -1.731873 7.033665 -0.625943 -5.650807 -2.666697 -0.233600 0.546292 0.000000 0.000000 0.000000 -7.775819 6.735504 3.386906 -60.311517 25.238649 23.679370 -4.591793 -13.352717 -0.028071 -2.339756 11.379100 -0.223293 -0.121697 -0.082129 -0.000000 0.000000 0.000000 0.000000 0.000000 0.000000 0.000000 8.524089 6.621033 1.203587 56.038728 45.778018 38.704641 0.654651 63.325250 -0.030128 -7.370947 9.819780 -0.673009 0.131159 -0.435695 -0.000000 0.000000 0.000000 0.000000 0.000000 0.000000 0.000000 
